<mxfile host="drawio-plugin" agent="Mozilla/5.0 (X11; Linux x86_64) AppleWebKit/537.36 (KHTML, like Gecko) Chrome/122.0.0.0 Safari/537.36" modified="2025-02-19T13:56:40.643Z" etag="lt7nO27C5yQLEP8NzfUu" version="22.1.22" type="embed">
  <diagram name="Page-1" id="vnmwI-xQ0mRfC60lx_vi">
    <mxGraphModel dx="2744" dy="1829" grid="1" gridSize="10" guides="1" tooltips="1" connect="1" arrows="1" fold="1" page="1" pageScale="1" pageWidth="850" pageHeight="1100" math="0" shadow="0">
      <root>
        <mxCell id="0" />
        <mxCell id="1" parent="0" />
        <mxCell id="s_LSaBDmb_ivbx3u3UzG-1" value="User" style="swimlane;fontStyle=0;childLayout=stackLayout;horizontal=1;startSize=30;horizontalStack=0;resizeParent=1;resizeParentMax=0;resizeLast=0;collapsible=1;marginBottom=0;whiteSpace=wrap;html=1;" parent="1" vertex="1">
          <mxGeometry x="-495" y="310" width="140" height="180" as="geometry" />
        </mxCell>
        <mxCell id="s_LSaBDmb_ivbx3u3UzG-2" value="&lt;div&gt;username&lt;/div&gt;" style="text;strokeColor=none;fillColor=none;align=left;verticalAlign=middle;spacingLeft=4;spacingRight=4;overflow=hidden;points=[[0,0.5],[1,0.5]];portConstraint=eastwest;rotatable=0;whiteSpace=wrap;html=1;fontStyle=1" parent="s_LSaBDmb_ivbx3u3UzG-1" vertex="1">
          <mxGeometry y="30" width="140" height="30" as="geometry" />
        </mxCell>
        <mxCell id="s_LSaBDmb_ivbx3u3UzG-3" value="password" style="text;strokeColor=none;fillColor=none;align=left;verticalAlign=middle;spacingLeft=4;spacingRight=4;overflow=hidden;points=[[0,0.5],[1,0.5]];portConstraint=eastwest;rotatable=0;whiteSpace=wrap;html=1;" parent="s_LSaBDmb_ivbx3u3UzG-1" vertex="1">
          <mxGeometry y="60" width="140" height="30" as="geometry" />
        </mxCell>
        <mxCell id="a4jcbPwt1ojCjgaN_IQJ-112" value="DarkMode:bool" style="text;strokeColor=none;fillColor=none;align=left;verticalAlign=middle;spacingLeft=4;spacingRight=4;overflow=hidden;points=[[0,0.5],[1,0.5]];portConstraint=eastwest;rotatable=0;whiteSpace=wrap;html=1;" parent="s_LSaBDmb_ivbx3u3UzG-1" vertex="1">
          <mxGeometry y="90" width="140" height="30" as="geometry" />
        </mxCell>
        <mxCell id="a4jcbPwt1ojCjgaN_IQJ-107" value="Boards[]" style="text;strokeColor=none;fillColor=none;align=left;verticalAlign=middle;spacingLeft=4;spacingRight=4;overflow=hidden;points=[[0,0.5],[1,0.5]];portConstraint=eastwest;rotatable=0;whiteSpace=wrap;html=1;" parent="s_LSaBDmb_ivbx3u3UzG-1" vertex="1">
          <mxGeometry y="120" width="140" height="30" as="geometry" />
        </mxCell>
        <mxCell id="a4jcbPwt1ojCjgaN_IQJ-106" value="Tags[]" style="text;strokeColor=none;fillColor=none;align=left;verticalAlign=middle;spacingLeft=4;spacingRight=4;overflow=hidden;points=[[0,0.5],[1,0.5]];portConstraint=eastwest;rotatable=0;whiteSpace=wrap;html=1;" parent="s_LSaBDmb_ivbx3u3UzG-1" vertex="1">
          <mxGeometry y="150" width="140" height="30" as="geometry" />
        </mxCell>
        <mxCell id="s_LSaBDmb_ivbx3u3UzG-9" value="Item" style="swimlane;fontStyle=0;childLayout=stackLayout;horizontal=1;startSize=30;horizontalStack=0;resizeParent=1;resizeParentMax=0;resizeLast=0;collapsible=1;marginBottom=0;whiteSpace=wrap;html=1;fillColor=#dae8fc;strokeColor=#6c8ebf;" parent="1" vertex="1">
          <mxGeometry x="300" y="-24.550000000000004" width="160" height="330" as="geometry" />
        </mxCell>
        <mxCell id="a4jcbPwt1ojCjgaN_IQJ-91" value="&lt;b&gt;ItemUUID:string&lt;/b&gt;" style="text;strokeColor=none;fillColor=none;align=left;verticalAlign=middle;spacingLeft=4;spacingRight=4;overflow=hidden;points=[[0,0.5],[1,0.5]];portConstraint=eastwest;rotatable=0;whiteSpace=wrap;html=1;fontStyle=4" parent="s_LSaBDmb_ivbx3u3UzG-9" vertex="1">
          <mxGeometry y="30" width="160" height="30" as="geometry" />
        </mxCell>
        <mxCell id="14" value="&lt;span&gt;ParentUUID:*string&lt;/span&gt;" style="text;strokeColor=none;fillColor=none;align=left;verticalAlign=middle;spacingLeft=4;spacingRight=4;overflow=hidden;points=[[0,0.5],[1,0.5]];portConstraint=eastwest;rotatable=0;whiteSpace=wrap;html=1;fontStyle=4" parent="s_LSaBDmb_ivbx3u3UzG-9" vertex="1">
          <mxGeometry y="60" width="160" height="30" as="geometry" />
        </mxCell>
        <mxCell id="15" value="&lt;span&gt;BoardUUID:string&lt;/span&gt;" style="text;strokeColor=none;fillColor=none;align=left;verticalAlign=middle;spacingLeft=4;spacingRight=4;overflow=hidden;points=[[0,0.5],[1,0.5]];portConstraint=eastwest;rotatable=0;whiteSpace=wrap;html=1;fontStyle=4" parent="s_LSaBDmb_ivbx3u3UzG-9" vertex="1">
          <mxGeometry y="90" width="160" height="30" as="geometry" />
        </mxCell>
        <mxCell id="16" value="&lt;span&gt;Name:string&lt;/span&gt;" style="text;strokeColor=none;fillColor=none;align=left;verticalAlign=middle;spacingLeft=4;spacingRight=4;overflow=hidden;points=[[0,0.5],[1,0.5]];portConstraint=eastwest;rotatable=0;whiteSpace=wrap;html=1;fontStyle=0" parent="s_LSaBDmb_ivbx3u3UzG-9" vertex="1">
          <mxGeometry y="120" width="160" height="30" as="geometry" />
        </mxCell>
        <mxCell id="17" value="&lt;span&gt;Description:string&lt;/span&gt;" style="text;strokeColor=none;fillColor=none;align=left;verticalAlign=middle;spacingLeft=4;spacingRight=4;overflow=hidden;points=[[0,0.5],[1,0.5]];portConstraint=eastwest;rotatable=0;whiteSpace=wrap;html=1;fontStyle=0" parent="s_LSaBDmb_ivbx3u3UzG-9" vertex="1">
          <mxGeometry y="150" width="160" height="30" as="geometry" />
        </mxCell>
        <mxCell id="18" value="&lt;span&gt;Quantity:int&lt;/span&gt;" style="text;strokeColor=none;fillColor=none;align=left;verticalAlign=middle;spacingLeft=4;spacingRight=4;overflow=hidden;points=[[0,0.5],[1,0.5]];portConstraint=eastwest;rotatable=0;whiteSpace=wrap;html=1;fontStyle=0" parent="s_LSaBDmb_ivbx3u3UzG-9" vertex="1">
          <mxGeometry y="180" width="160" height="30" as="geometry" />
        </mxCell>
        <mxCell id="19" value="&lt;span&gt;Tags:string[]&lt;/span&gt;" style="text;strokeColor=none;fillColor=none;align=left;verticalAlign=middle;spacingLeft=4;spacingRight=4;overflow=hidden;points=[[0,0.5],[1,0.5]];portConstraint=eastwest;rotatable=0;whiteSpace=wrap;html=1;fontStyle=0" parent="s_LSaBDmb_ivbx3u3UzG-9" vertex="1">
          <mxGeometry y="210" width="160" height="30" as="geometry" />
        </mxCell>
        <mxCell id="20" value="&lt;span&gt;Picture:string&lt;/span&gt;" style="text;strokeColor=none;fillColor=none;align=left;verticalAlign=middle;spacingLeft=4;spacingRight=4;overflow=hidden;points=[[0,0.5],[1,0.5]];portConstraint=eastwest;rotatable=0;whiteSpace=wrap;html=1;fontStyle=0" parent="s_LSaBDmb_ivbx3u3UzG-9" vertex="1">
          <mxGeometry y="240" width="160" height="30" as="geometry" />
        </mxCell>
        <mxCell id="21" value="&lt;span&gt;Barcode:string&lt;/span&gt;" style="text;strokeColor=none;fillColor=none;align=left;verticalAlign=middle;spacingLeft=4;spacingRight=4;overflow=hidden;points=[[0,0.5],[1,0.5]];portConstraint=eastwest;rotatable=0;whiteSpace=wrap;html=1;fontStyle=0" parent="s_LSaBDmb_ivbx3u3UzG-9" vertex="1">
          <mxGeometry y="270" width="160" height="30" as="geometry" />
        </mxCell>
        <mxCell id="22" value="&lt;span&gt;Fields:string[]&lt;/span&gt;" style="text;strokeColor=none;fillColor=none;align=left;verticalAlign=middle;spacingLeft=4;spacingRight=4;overflow=hidden;points=[[0,0.5],[1,0.5]];portConstraint=eastwest;rotatable=0;whiteSpace=wrap;html=1;fontStyle=0" parent="s_LSaBDmb_ivbx3u3UzG-9" vertex="1">
          <mxGeometry y="300" width="160" height="30" as="geometry" />
        </mxCell>
        <mxCell id="a4jcbPwt1ojCjgaN_IQJ-14" value="Each user has their own Barcode Table where they can keep barcodes of &lt;br&gt;different items, so that when they scan the item again it automatically &lt;br&gt;&lt;div&gt;gets added&lt;/div&gt;&lt;div&gt;This is technically legal. So I can save the barcodes by having the user generate the item by themselves, or even find the item online and attach a barcode to it.&lt;/div&gt;" style="rounded=0;whiteSpace=wrap;html=1;fillColor=#fff2cc;strokeColor=#d6b656;align=center;fillStyle=auto;shadow=0;glass=0;fontSize=13;fontStyle=1;labelPosition=center;verticalLabelPosition=middle;verticalAlign=middle;fontColor=default;textOpacity=60;spacing=20;spacingTop=0;spacingBottom=0;spacingLeft=0;fontFamily=Monaspace Argon;fontSource=https%3A%2F%2Fonline-fonts.com%2Ffonts%2Fmonaspace-argon;collapsible=0;container=1;portConstraint=none;autosize=0;fixedWidth=0;resizable=1;" parent="1" vertex="1">
          <mxGeometry x="-500" y="-210" width="340" height="270" as="geometry" />
        </mxCell>
        <mxCell id="a4jcbPwt1ojCjgaN_IQJ-15" value="&lt;div align=&quot;center&quot;&gt;&lt;b&gt;&lt;font data-font-src=&quot;https://online-fonts.com/fonts/monaspace-argon&quot; face=&quot;Monaspace Argon&quot;&gt;&lt;span&gt;NOTE&lt;/span&gt;&lt;/font&gt;&lt;/b&gt;&lt;/div&gt;" style="text;html=1;align=center;verticalAlign=middle;whiteSpace=wrap;rounded=0;fontStyle=0" parent="a4jcbPwt1ojCjgaN_IQJ-14" vertex="1">
          <mxGeometry width="72.85714285714285" height="36.81818181818182" as="geometry" />
        </mxCell>
        <mxCell id="a4jcbPwt1ojCjgaN_IQJ-16" value="&lt;div&gt;Fields can be booleans&lt;/div&gt;&lt;div&gt;Checkboxes&lt;/div&gt;&lt;div&gt;Radio buttons&lt;/div&gt;&lt;div&gt;Input fields&lt;/div&gt;&lt;div&gt;Select field&lt;/div&gt;" style="rounded=0;whiteSpace=wrap;html=1;fillColor=#fff2cc;strokeColor=#d6b656;align=center;fillStyle=auto;shadow=0;glass=0;fontSize=13;fontStyle=1;labelPosition=center;verticalLabelPosition=middle;verticalAlign=middle;fontColor=default;textOpacity=60;spacing=20;spacingTop=0;spacingBottom=0;spacingLeft=0;fontFamily=Monaspace Argon;fontSource=https%3A%2F%2Fonline-fonts.com%2Ffonts%2Fmonaspace-argon;collapsible=0;container=1;portConstraint=none;autosize=0;fixedWidth=0;resizable=1;" parent="1" vertex="1">
          <mxGeometry x="510" y="-80" width="280" height="220" as="geometry" />
        </mxCell>
        <mxCell id="a4jcbPwt1ojCjgaN_IQJ-17" value="&lt;div align=&quot;center&quot;&gt;&lt;b&gt;&lt;font data-font-src=&quot;https://online-fonts.com/fonts/monaspace-argon&quot; face=&quot;Monaspace Argon&quot;&gt;&lt;span&gt;NOTE&lt;/span&gt;&lt;/font&gt;&lt;/b&gt;&lt;/div&gt;" style="text;html=1;align=center;verticalAlign=middle;whiteSpace=wrap;rounded=0;fontStyle=0" parent="a4jcbPwt1ojCjgaN_IQJ-16" vertex="1">
          <mxGeometry width="60" height="30" as="geometry" />
        </mxCell>
        <mxCell id="s_LSaBDmb_ivbx3u3UzG-32" value="Barcode Table" style="html=1;verticalLabelPosition=bottom;align=center;labelBackgroundColor=#ffffff;verticalAlign=top;strokeWidth=2;strokeColor=#0080F0;shadow=0;dashed=0;shape=mxgraph.ios7.icons.data;" parent="1" vertex="1">
          <mxGeometry x="-90" y="-24.55000000000001" width="24" height="29.099999999999998" as="geometry" />
        </mxCell>
        <mxCell id="a4jcbPwt1ojCjgaN_IQJ-20" value="&lt;div&gt;Items can have Items inside of them so it goes recursively&lt;/div&gt;&lt;div&gt;For example we want to make a grocery shopping list and a recipe board. The recipes which are items have ingredients which are also items&lt;/div&gt;" style="rounded=0;whiteSpace=wrap;html=1;fillColor=#fff2cc;strokeColor=#d6b656;align=center;fillStyle=auto;shadow=0;glass=0;fontSize=13;fontStyle=1;labelPosition=center;verticalLabelPosition=middle;verticalAlign=middle;fontColor=default;textOpacity=60;spacing=20;spacingTop=0;spacingBottom=0;spacingLeft=0;fontFamily=Monaspace Argon;fontSource=https%3A%2F%2Fonline-fonts.com%2Ffonts%2Fmonaspace-argon;collapsible=0;container=1;portConstraint=none;autosize=0;fixedWidth=0;resizable=1;" parent="1" vertex="1">
          <mxGeometry x="520" y="210" width="270" height="190" as="geometry" />
        </mxCell>
        <mxCell id="a4jcbPwt1ojCjgaN_IQJ-21" value="&lt;div align=&quot;center&quot;&gt;&lt;b&gt;&lt;font data-font-src=&quot;https://online-fonts.com/fonts/monaspace-argon&quot; face=&quot;Monaspace Argon&quot;&gt;&lt;span&gt;NOTE&lt;/span&gt;&lt;/font&gt;&lt;/b&gt;&lt;/div&gt;" style="text;html=1;align=center;verticalAlign=middle;whiteSpace=wrap;rounded=0;fontStyle=0" parent="a4jcbPwt1ojCjgaN_IQJ-20" vertex="1">
          <mxGeometry width="57.857142857142854" height="25.909090909090907" as="geometry" />
        </mxCell>
        <mxCell id="a4jcbPwt1ojCjgaN_IQJ-22" value="&lt;div&gt;Have pre made boards like groceries and household stuff&lt;/div&gt;&lt;div&gt;each board should have a seperate barcode database&lt;/div&gt;" style="rounded=0;whiteSpace=wrap;html=1;fillColor=#fff2cc;strokeColor=#d6b656;align=center;fillStyle=auto;shadow=0;glass=0;fontSize=13;fontStyle=1;labelPosition=center;verticalLabelPosition=middle;verticalAlign=middle;fontColor=default;textOpacity=60;spacing=20;spacingTop=0;spacingBottom=0;spacingLeft=0;fontFamily=Monaspace Argon;fontSource=https%3A%2F%2Fonline-fonts.com%2Ffonts%2Fmonaspace-argon;collapsible=0;container=1;portConstraint=none;autosize=0;fixedWidth=0;resizable=1;" parent="1" vertex="1">
          <mxGeometry x="510" y="460" width="280" height="220" as="geometry" />
        </mxCell>
        <mxCell id="a4jcbPwt1ojCjgaN_IQJ-23" value="&lt;div align=&quot;center&quot;&gt;&lt;b&gt;&lt;font data-font-src=&quot;https://online-fonts.com/fonts/monaspace-argon&quot; face=&quot;Monaspace Argon&quot;&gt;&lt;span&gt;NOTE&lt;/span&gt;&lt;/font&gt;&lt;/b&gt;&lt;/div&gt;" style="text;html=1;align=center;verticalAlign=middle;whiteSpace=wrap;rounded=0;fontStyle=0" parent="a4jcbPwt1ojCjgaN_IQJ-22" vertex="1">
          <mxGeometry width="60" height="30" as="geometry" />
        </mxCell>
        <mxCell id="a4jcbPwt1ojCjgaN_IQJ-35" value="UserAuthService" style="ellipse;whiteSpace=wrap;html=1;" parent="1" vertex="1">
          <mxGeometry x="-300" y="200" width="165" height="80" as="geometry" />
        </mxCell>
        <mxCell id="a4jcbPwt1ojCjgaN_IQJ-53" value="AI Agent to tell you when to buy what by scraping magazines and websites of markets" style="rounded=0;whiteSpace=wrap;html=1;fillColor=#fff2cc;strokeColor=#d6b656;align=center;fillStyle=auto;shadow=0;glass=0;fontSize=13;fontStyle=1;labelPosition=center;verticalLabelPosition=middle;verticalAlign=middle;fontColor=default;textOpacity=60;spacing=20;spacingTop=0;spacingBottom=0;spacingLeft=0;fontFamily=Monaspace Argon;fontSource=https%3A%2F%2Fonline-fonts.com%2Ffonts%2Fmonaspace-argon;collapsible=0;container=1;portConstraint=none;autosize=0;fixedWidth=0;resizable=1;" parent="1" vertex="1">
          <mxGeometry x="1210" y="-180" width="280" height="220" as="geometry" />
        </mxCell>
        <mxCell id="a4jcbPwt1ojCjgaN_IQJ-54" value="&lt;div align=&quot;center&quot;&gt;&lt;b&gt;&lt;font data-font-src=&quot;https://online-fonts.com/fonts/monaspace-argon&quot; face=&quot;Monaspace Argon&quot;&gt;&lt;span&gt;NOTE&lt;/span&gt;&lt;/font&gt;&lt;/b&gt;&lt;/div&gt;" style="text;html=1;align=center;verticalAlign=middle;whiteSpace=wrap;rounded=0;fontStyle=0" parent="a4jcbPwt1ojCjgaN_IQJ-53" vertex="1">
          <mxGeometry width="60" height="30" as="geometry" />
        </mxCell>
        <mxCell id="a4jcbPwt1ojCjgaN_IQJ-65" value="&lt;div&gt;This is a &quot;Montioring household application&quot;&lt;/div&gt;&lt;br&gt;It&#39;ll give you alerts based on how much milk you have left or something like that" style="rounded=0;whiteSpace=wrap;html=1;fillColor=#fff2cc;strokeColor=#d6b656;align=center;fillStyle=auto;shadow=0;glass=0;fontSize=13;fontStyle=1;labelPosition=center;verticalLabelPosition=middle;verticalAlign=middle;fontColor=default;textOpacity=60;spacing=20;spacingTop=0;spacingBottom=0;spacingLeft=0;fontFamily=Monaspace Argon;fontSource=https%3A%2F%2Fonline-fonts.com%2Ffonts%2Fmonaspace-argon;collapsible=0;container=1;portConstraint=none;autosize=0;fixedWidth=0;resizable=1;" parent="1" vertex="1">
          <mxGeometry x="510" y="800" width="280" height="220" as="geometry" />
        </mxCell>
        <mxCell id="a4jcbPwt1ojCjgaN_IQJ-66" value="&lt;div align=&quot;center&quot;&gt;&lt;b&gt;&lt;font data-font-src=&quot;https://online-fonts.com/fonts/monaspace-argon&quot; face=&quot;Monaspace Argon&quot;&gt;&lt;span&gt;NOTE&lt;/span&gt;&lt;/font&gt;&lt;/b&gt;&lt;/div&gt;" style="text;html=1;align=center;verticalAlign=middle;whiteSpace=wrap;rounded=0;fontStyle=0" parent="a4jcbPwt1ojCjgaN_IQJ-65" vertex="1">
          <mxGeometry width="60" height="30" as="geometry" />
        </mxCell>
        <mxCell id="a4jcbPwt1ojCjgaN_IQJ-69" value="Make the same template of &quot;Montioring hosuehold groceries&quot;&lt;br&gt;&quot;Monitoring household bathroom supplies boards etc&quot;&lt;br&gt;But have it so that people pay for the boards individually don&#39;t let them make their own, unless they pay for the premium" style="rounded=0;whiteSpace=wrap;html=1;fillColor=#fff2cc;strokeColor=#d6b656;align=center;fillStyle=auto;shadow=0;glass=0;fontSize=13;fontStyle=1;labelPosition=center;verticalLabelPosition=middle;verticalAlign=middle;fontColor=default;textOpacity=60;spacing=20;spacingTop=0;spacingBottom=0;spacingLeft=0;fontFamily=Monaspace Argon;fontSource=https%3A%2F%2Fonline-fonts.com%2Ffonts%2Fmonaspace-argon;collapsible=0;container=1;portConstraint=none;autosize=0;fixedWidth=0;resizable=1;" parent="1" vertex="1">
          <mxGeometry x="510" y="1090" width="280" height="220" as="geometry" />
        </mxCell>
        <mxCell id="a4jcbPwt1ojCjgaN_IQJ-70" value="&lt;div align=&quot;center&quot;&gt;&lt;b&gt;&lt;font data-font-src=&quot;https://online-fonts.com/fonts/monaspace-argon&quot; face=&quot;Monaspace Argon&quot;&gt;&lt;span&gt;NOTE&lt;/span&gt;&lt;/font&gt;&lt;/b&gt;&lt;/div&gt;" style="text;html=1;align=center;verticalAlign=middle;whiteSpace=wrap;rounded=0;fontStyle=0" parent="a4jcbPwt1ojCjgaN_IQJ-69" vertex="1">
          <mxGeometry width="60" height="30" as="geometry" />
        </mxCell>
        <mxCell id="a4jcbPwt1ojCjgaN_IQJ-74" value="ProblemList" style="swimlane;fontStyle=0;childLayout=stackLayout;horizontal=1;startSize=30;horizontalStack=0;resizeParent=1;resizeParentMax=0;resizeLast=0;collapsible=1;marginBottom=0;whiteSpace=wrap;html=1;" parent="1" vertex="1">
          <mxGeometry x="-230" y="580" width="160" height="90" as="geometry" />
        </mxCell>
        <mxCell id="a4jcbPwt1ojCjgaN_IQJ-75" value="BoardUUID" style="text;strokeColor=none;fillColor=none;align=left;verticalAlign=middle;spacingLeft=4;spacingRight=4;overflow=hidden;points=[[0,0.5],[1,0.5]];portConstraint=eastwest;rotatable=0;whiteSpace=wrap;html=1;fontStyle=1" parent="a4jcbPwt1ojCjgaN_IQJ-74" vertex="1">
          <mxGeometry y="30" width="160" height="30" as="geometry" />
        </mxCell>
        <mxCell id="a4jcbPwt1ojCjgaN_IQJ-80" value="Alerts[]" style="text;strokeColor=none;fillColor=none;align=left;verticalAlign=middle;spacingLeft=4;spacingRight=4;overflow=hidden;points=[[0,0.5],[1,0.5]];portConstraint=eastwest;rotatable=0;whiteSpace=wrap;html=1;" parent="a4jcbPwt1ojCjgaN_IQJ-74" vertex="1">
          <mxGeometry y="60" width="160" height="30" as="geometry" />
        </mxCell>
        <mxCell id="a4jcbPwt1ojCjgaN_IQJ-81" value="Alert" style="swimlane;fontStyle=0;childLayout=stackLayout;horizontal=1;startSize=30;horizontalStack=0;resizeParent=1;resizeParentMax=0;resizeLast=0;collapsible=1;marginBottom=0;whiteSpace=wrap;html=1;" parent="1" vertex="1">
          <mxGeometry x="-230" y="700" width="160" height="60" as="geometry" />
        </mxCell>
        <mxCell id="a4jcbPwt1ojCjgaN_IQJ-82" value="&lt;div&gt;Condition&lt;/div&gt;" style="text;strokeColor=none;fillColor=none;align=left;verticalAlign=middle;spacingLeft=4;spacingRight=4;overflow=hidden;points=[[0,0.5],[1,0.5]];portConstraint=eastwest;rotatable=0;whiteSpace=wrap;html=1;" parent="a4jcbPwt1ojCjgaN_IQJ-81" vertex="1">
          <mxGeometry y="30" width="160" height="30" as="geometry" />
        </mxCell>
        <mxCell id="a4jcbPwt1ojCjgaN_IQJ-84" value="Alerts are here for example we have a shopping list,&lt;br&gt;so we get alerted what to buy when to buy it by a specific condition on the items&lt;br&gt;&lt;div&gt;If we manually input when we bought stuff we can have an alert to buy milk or something.&lt;/div&gt;&lt;div&gt;In the case for a shopping list have a seperate page where instead of &quot;problems&quot; it&#39;s a shopping list and it says buy milk.&lt;/div&gt;&lt;div&gt;Also have it work with dates like every start of month buy milk or week.&lt;/div&gt;" style="rounded=0;whiteSpace=wrap;html=1;fillColor=#fff2cc;strokeColor=#d6b656;align=center;fillStyle=auto;shadow=0;glass=0;fontSize=13;fontStyle=1;labelPosition=center;verticalLabelPosition=middle;verticalAlign=middle;fontColor=default;textOpacity=60;spacing=20;spacingTop=0;spacingBottom=0;spacingLeft=0;fontFamily=Monaspace Argon;fontSource=https%3A%2F%2Fonline-fonts.com%2Ffonts%2Fmonaspace-argon;collapsible=0;container=1;portConstraint=none;autosize=0;fixedWidth=0;resizable=1;" parent="1" vertex="1">
          <mxGeometry x="-600" y="740" width="340" height="300" as="geometry" />
        </mxCell>
        <mxCell id="a4jcbPwt1ojCjgaN_IQJ-85" value="&lt;div align=&quot;center&quot;&gt;&lt;b&gt;&lt;font data-font-src=&quot;https://online-fonts.com/fonts/monaspace-argon&quot; face=&quot;Monaspace Argon&quot;&gt;&lt;span&gt;NOTE&lt;/span&gt;&lt;/font&gt;&lt;/b&gt;&lt;/div&gt;" style="text;html=1;align=center;verticalAlign=middle;whiteSpace=wrap;rounded=0;fontStyle=0" parent="a4jcbPwt1ojCjgaN_IQJ-84" vertex="1">
          <mxGeometry width="72.85714285714286" height="40.909090909090914" as="geometry" />
        </mxCell>
        <mxCell id="WZIUG7Mhky3QRmYVXI-O-8" value="AlertService" style="ellipse;whiteSpace=wrap;html=1;" parent="1" vertex="1">
          <mxGeometry x="-220" y="450" width="165" height="80" as="geometry" />
        </mxCell>
        <mxCell id="WZIUG7Mhky3QRmYVXI-O-20" value="Item Table" style="html=1;verticalLabelPosition=bottom;align=center;labelBackgroundColor=#ffffff;verticalAlign=top;strokeWidth=2;strokeColor=#0080F0;shadow=0;dashed=0;shape=mxgraph.ios7.icons.data;" parent="1" vertex="1">
          <mxGeometry x="30" y="-24.55000000000001" width="24" height="29.099999999999998" as="geometry" />
        </mxCell>
        <mxCell id="WZIUG7Mhky3QRmYVXI-O-33" value="Essentually we have some default variables and then Fields&amp;lt;Key,Value&amp;gt; pairs which are here to add additional fields to the item" style="rounded=0;whiteSpace=wrap;html=1;fillColor=#fff2cc;strokeColor=#d6b656;align=center;fillStyle=auto;shadow=0;glass=0;fontSize=13;fontStyle=1;labelPosition=center;verticalLabelPosition=middle;verticalAlign=middle;fontColor=default;textOpacity=60;spacing=20;spacingTop=0;spacingBottom=0;spacingLeft=0;fontFamily=Monaspace Argon;fontSource=https%3A%2F%2Fonline-fonts.com%2Ffonts%2Fmonaspace-argon;collapsible=0;container=1;portConstraint=none;autosize=0;fixedWidth=0;resizable=1;" parent="1" vertex="1">
          <mxGeometry x="280" y="-320" width="280" height="220" as="geometry" />
        </mxCell>
        <mxCell id="WZIUG7Mhky3QRmYVXI-O-34" value="&lt;div align=&quot;center&quot;&gt;&lt;b&gt;&lt;font data-font-src=&quot;https://online-fonts.com/fonts/monaspace-argon&quot; face=&quot;Monaspace Argon&quot;&gt;&lt;span&gt;NOTE&lt;/span&gt;&lt;/font&gt;&lt;/b&gt;&lt;/div&gt;" style="text;html=1;align=center;verticalAlign=middle;whiteSpace=wrap;rounded=0;fontStyle=0" parent="WZIUG7Mhky3QRmYVXI-O-33" vertex="1">
          <mxGeometry width="60" height="30" as="geometry" />
        </mxCell>
        <mxCell id="WZIUG7Mhky3QRmYVXI-O-36" value="&lt;div&gt;In addition to the basic CRUD services for each of the entities&lt;/div&gt;&lt;div&gt;we will need &lt;br&gt;UserAuthenticaion&lt;/div&gt;&lt;div&gt;Alert&lt;/div&gt;&lt;div&gt;Camera&lt;/div&gt;&lt;div&gt;&lt;br&gt;&lt;/div&gt;" style="rounded=0;whiteSpace=wrap;html=1;fillColor=#fff2cc;strokeColor=#d6b656;align=center;fillStyle=auto;shadow=0;glass=0;fontSize=13;fontStyle=1;labelPosition=center;verticalLabelPosition=middle;verticalAlign=middle;fontColor=default;textOpacity=60;spacing=20;spacingTop=0;spacingBottom=0;spacingLeft=0;fontFamily=Monaspace Argon;fontSource=https%3A%2F%2Fonline-fonts.com%2Ffonts%2Fmonaspace-argon;collapsible=0;container=1;portConstraint=none;autosize=0;fixedWidth=0;resizable=1;" parent="1" vertex="1">
          <mxGeometry x="-90" y="185" width="280" height="220" as="geometry" />
        </mxCell>
        <mxCell id="WZIUG7Mhky3QRmYVXI-O-37" value="&lt;div align=&quot;center&quot;&gt;&lt;b&gt;&lt;font data-font-src=&quot;https://online-fonts.com/fonts/monaspace-argon&quot; face=&quot;Monaspace Argon&quot;&gt;&lt;span&gt;NOTE&lt;/span&gt;&lt;/font&gt;&lt;/b&gt;&lt;/div&gt;" style="text;html=1;align=center;verticalAlign=middle;whiteSpace=wrap;rounded=0;fontStyle=0" parent="WZIUG7Mhky3QRmYVXI-O-36" vertex="1">
          <mxGeometry width="60" height="30" as="geometry" />
        </mxCell>
        <mxCell id="WZIUG7Mhky3QRmYVXI-O-40" value="This is just going to be a web app. Written in go and whatever framework I find easy at the time." style="rounded=0;whiteSpace=wrap;html=1;fillColor=#dae8fc;strokeColor=#6c8ebf;align=center;fillStyle=auto;shadow=0;glass=0;fontSize=13;fontStyle=1;labelPosition=center;verticalLabelPosition=middle;verticalAlign=middle;textOpacity=60;spacing=20;spacingTop=0;spacingBottom=0;spacingLeft=0;fontFamily=Monaspace Argon;fontSource=https%3A%2F%2Fonline-fonts.com%2Ffonts%2Fmonaspace-argon;collapsible=0;container=1;portConstraint=none;autosize=0;fixedWidth=0;resizable=1;" parent="1" vertex="1">
          <mxGeometry x="-1040" y="-150" width="280" height="220" as="geometry" />
        </mxCell>
        <mxCell id="WZIUG7Mhky3QRmYVXI-O-41" value="INFO" style="text;html=1;align=center;verticalAlign=middle;whiteSpace=wrap;rounded=0;fontStyle=1" parent="WZIUG7Mhky3QRmYVXI-O-40" vertex="1">
          <mxGeometry width="60" height="30" as="geometry" />
        </mxCell>
        <mxCell id="3" value="Board" style="swimlane;fontStyle=0;childLayout=stackLayout;horizontal=1;startSize=30;horizontalStack=0;resizeParent=1;resizeParentMax=0;resizeLast=0;collapsible=1;marginBottom=0;whiteSpace=wrap;html=1;fillColor=#dae8fc;strokeColor=#6c8ebf;" parent="1" vertex="1">
          <mxGeometry x="140" y="620" width="140" height="150" as="geometry" />
        </mxCell>
        <mxCell id="9" value="&lt;b&gt;BoardUUID:string&lt;/b&gt;" style="text;strokeColor=none;fillColor=none;align=left;verticalAlign=middle;spacingLeft=4;spacingRight=4;overflow=hidden;points=[[0,0.5],[1,0.5]];portConstraint=eastwest;rotatable=0;whiteSpace=wrap;html=1;fontStyle=4" parent="3" vertex="1">
          <mxGeometry y="30" width="140" height="30" as="geometry" />
        </mxCell>
        <mxCell id="10" value="ThemeUUID:string" style="text;strokeColor=none;fillColor=none;align=left;verticalAlign=middle;spacingLeft=4;spacingRight=4;overflow=hidden;points=[[0,0.5],[1,0.5]];portConstraint=eastwest;rotatable=0;whiteSpace=wrap;html=1;fontStyle=4" parent="3" vertex="1">
          <mxGeometry y="60" width="140" height="30" as="geometry" />
        </mxCell>
        <mxCell id="12" value="Items:Item[]" style="text;strokeColor=none;fillColor=none;align=left;verticalAlign=middle;spacingLeft=4;spacingRight=4;overflow=hidden;points=[[0,0.5],[1,0.5]];portConstraint=eastwest;rotatable=0;whiteSpace=wrap;html=1;fontStyle=4" parent="3" vertex="1">
          <mxGeometry y="90" width="140" height="30" as="geometry" />
        </mxCell>
        <mxCell id="13" value="Name" style="text;strokeColor=none;fillColor=none;align=left;verticalAlign=middle;spacingLeft=4;spacingRight=4;overflow=hidden;points=[[0,0.5],[1,0.5]];portConstraint=eastwest;rotatable=0;whiteSpace=wrap;html=1;fontStyle=0" parent="3" vertex="1">
          <mxGeometry y="120" width="140" height="30" as="geometry" />
        </mxCell>
        <mxCell id="23" value="Theme" style="swimlane;fontStyle=0;childLayout=stackLayout;horizontal=1;startSize=30;horizontalStack=0;resizeParent=1;resizeParentMax=0;resizeLast=0;collapsible=1;marginBottom=0;whiteSpace=wrap;html=1;fillColor=#dae8fc;strokeColor=#6c8ebf;" vertex="1" parent="1">
          <mxGeometry x="160" y="940" width="140" height="150" as="geometry" />
        </mxCell>
        <mxCell id="24" value="&lt;b&gt;ThemeUUID:string&lt;/b&gt;" style="text;strokeColor=none;fillColor=none;align=left;verticalAlign=middle;spacingLeft=4;spacingRight=4;overflow=hidden;points=[[0,0.5],[1,0.5]];portConstraint=eastwest;rotatable=0;whiteSpace=wrap;html=1;fontStyle=4" vertex="1" parent="23">
          <mxGeometry y="30" width="140" height="30" as="geometry" />
        </mxCell>
        <mxCell id="25" value="Name" style="text;strokeColor=none;fillColor=none;align=left;verticalAlign=middle;spacingLeft=4;spacingRight=4;overflow=hidden;points=[[0,0.5],[1,0.5]];portConstraint=eastwest;rotatable=0;whiteSpace=wrap;html=1;fontStyle=0" vertex="1" parent="23">
          <mxGeometry y="60" width="140" height="30" as="geometry" />
        </mxCell>
        <mxCell id="26" value="Color" style="text;strokeColor=none;fillColor=none;align=left;verticalAlign=middle;spacingLeft=4;spacingRight=4;overflow=hidden;points=[[0,0.5],[1,0.5]];portConstraint=eastwest;rotatable=0;whiteSpace=wrap;html=1;fontStyle=0" vertex="1" parent="23">
          <mxGeometry y="90" width="140" height="30" as="geometry" />
        </mxCell>
        <mxCell id="27" value="Picture" style="text;strokeColor=none;fillColor=none;align=left;verticalAlign=middle;spacingLeft=4;spacingRight=4;overflow=hidden;points=[[0,0.5],[1,0.5]];portConstraint=eastwest;rotatable=0;whiteSpace=wrap;html=1;fontStyle=0" vertex="1" parent="23">
          <mxGeometry y="120" width="140" height="30" as="geometry" />
        </mxCell>
      </root>
    </mxGraphModel>
  </diagram>
</mxfile>
